<?xml version="1.0" encoding="UTF-8" standalone="no"?>
<svg
   viewBox="0 0 16 16"
   version="1.1"
   xmlns:svg="http://www.w3.org/2000/svg">
  <path
     style="fill:#232629"
     d="m 5,6 h 1 c 0,0 0,1 1,2 2,2 2,4 2,4 0,0 0,2 -3,2 H 5 C 2,14 2,12 2,12 2,12 2,10 4,8 5,7 5,6 5,6 Z"
     id="x_ray_volume"/>
  <path
     style="fill:#232629"
     d="M 6,6 V 2 H 5 v 4"
     id="e_beam" />
  <path
     style="fill:#ed1515"
     d="M 10,3 14,7 13,8 9,4 Z"
     id="absorption_abstraction"/>
  <path
     style="fill:#da4453"
     d="M 6,6 H 10 L 11,7 v 4 H 10 V 8 L 7,11 6,10 7,9 9,7 H 6 Z"
     id="absorbed_x_rays"/>
</svg>
