<svg version="1.1" viewBox="0 0 48 48" xmlns="http://www.w3.org/2000/svg">
    <g transform="translate(0 -1004.4)" fill="#232629">
        <g transform="translate(-1.5623 .0416)">
            <path d="m37.176 1031h-11.758l-1.8555 5.3125h-7.5586l10.801-29.16h8.9648l10.801 29.16h-7.5586zm-9.8828-5.4102h7.9883l-3.9844-11.602z"/>
        </g>
        <path transform="translate(0 1004.4)" d="m6 2-5 6h3v23h-3l5 5 5-5h-3v-23h3z"/>
        <path transform="translate(0 1004.4)" d="m16 37-5 5 5 5v-3h24v3l5-5-5-5v3h-24z"/>
        <g aria-label="X ">
            <path d="m25.319 1032.8h3.2487l1.6927 2.9362 1.6406-2.9362h3.2161l-2.9688 4.6224 3.2487 4.9219h-3.3138l-1.8815-3.0664-1.888 3.0664h-3.2943l3.2943-4.974z"/>
        </g>
        <g aria-label="Y">
            <path d="m9.4879 1018.2h2.7995l1.4258 4.6029 1.3216-4.6029h2.6107l-2.7409 7.3893q-0.46875 1.2631-0.95703 1.7058-0.6901 0.625-2.1029 0.625-0.57292 0-1.7708-0.1563l-0.20833-1.8489q0.57292 0.1822 1.276 0.1822 0.46875 0 0.75521-0.2148 0.29297-0.2148 0.49479-0.7682z"/>
        </g>
    </g>
</svg>
