<?xml version="1.0" encoding="UTF-8" standalone="no"?>
<svg
   viewBox="0 0 16 16"
   version="1.1">
  <path
     style="fill:#232629"
     d="m 5,6 h 1 c 0,0 0,1 1,2 2,2 2,4 2,4 0,0 0,2 -3,2 H 5 C 2,14 2,12 2,12 2,12 2,10 4,8 5,7 5,6 5,6 Z"
     id="x_ray_volume"/>
  <path
     style="fill:#242629"
     d="M 6,6 V 2 H 5 v 4"
     id="e_beam" />
  <path
     style="fill:#27ae60"
     d="m 9,3 h 5 V 8 H 13 V 4 H 9 Z"
     id="emission_arrow_1"/>
  <path
     style="fill:#27ae60"
     d="m 7,5 h 5 v 5 h -1 L 11,7 8,10 V 9 H 7 L 10,6 H 7 Z"
     id="emission_arrow_2" />
</svg>
