<?xml version="1.0" encoding="UTF-8" standalone="no"?>
<svg
   version="1.1"
   viewBox="0 0 48 48"
   xmlns:svg="http://www.w3.org/2000/svg">
  <defs
     id="defs30" />
  <g id="exp">
    <path
       d="m 9.0655005,16.998261 q -3.3031858,0 -5.1907206,-1.97681 -1.8747811,-1.989563 -1.8747811,-5.4202854 0,-2.1298534 0.7397095,-3.8515912 0.7524632,-1.7217378 2.2191288,-2.7292733 1.4794191,-1.020289 3.6475334,-1.020289 2.8568095,0 4.4255035,1.8365203 1.581448,1.8237667 1.581448,5.0631845 V 10.047542 H 4.4486925 v 0.07652 q 0,2.231882 1.1733325,3.558258 1.1733324,1.326376 3.4689828,1.326376 1.3263762,0 2.5634762,-0.42087 1.249854,-0.420869 2.410433,-1.020289 v 2.333912 q -1.211593,0.49739 -2.461447,0.790724 -1.237101,0.306086 -2.5379695,0.306086 z M 12.266657,8.2110218 q 0,-1.1860861 -0.357101,-2.1426071 -0.357101,-0.956521 -1.147825,-1.51768 -0.7779703,-0.5611589 -2.0660852,-0.5611589 -1.3008686,0 -2.1808679,0.5739125 -0.8672457,0.561159 -1.3646366,1.51768 -0.4846373,0.956521 -0.6121735,2.1298535 z"
       id="e"
       style="fill:#232629;fill-opacity:1" />
    <path
       d="M 22.724621,9.1802964 17.610422,2.3443596 h 2.601737 l 3.787823,5.1652134 3.762316,-5.1652134 h 2.639998 l -5.114199,6.8359368 5.61159,7.4481106 h -2.71652 l -4.183185,-5.726373 -4.170432,5.726373 h -2.716519 z"
       id="x"
       style="fill:#232629;fill-opacity:1" />
    <path
       d="m 34.292148,2.3443596 h 2.129854 l 0.229565,1.8237667 q 1.224346,-2.1681142 3.838837,-2.1681142 2.563476,0 4.030142,2.0023173 1.479419,2.0023173 1.479419,5.4713001 0,3.4944905 -1.492173,5.5095605 -1.479419,2.015071 -4.017388,2.015071 -2.678259,0 -3.838837,-2.168114 v 7.231299 h -2.359419 z m 5.892169,12.6643384 q 3.354201,0 3.354201,-5.5095613 0,-5.5095609 -3.354201,-5.5095609 -1.721737,0 -2.627244,1.4284046 -0.905506,1.4284047 -0.905506,4.0684027 0,2.6527519 0.905506,4.0939099 0.91826,1.428405 2.627244,1.428405 z"
       id="p"
       style="fill:#232629;fill-opacity:1" />
  </g>
  <g id="curve">
    <path
       d="M 12.039063,21.648437 C 11.043138,23.241553 10.003022,23.332326 8,24 H 2 v 4 h 6 c 3.388623,0 5.956821,-1.876374 7.429688,-4.232422 C 18,20 22,19 26.404297,28.126953 28,31 32.018141,39.456287 33.361328,41.742187 34.704515,44.028088 36.974946,46 40,46 h 6 V 42 H 40 C 38.525059,42 37.774275,41.356916 36.810547,39.716797 35.846818,38.076678 32,30 30.220703,26.927734 25,16 18,15 12.039063,21.648437 Z"
       id="curve"
       style="fill:#232629;fill-opacity:1" />
  </g>
  <g
     fill="#7f8c8d"
     id="marker">
    <path
       d="m 40,32 v 13 h 4 V 32 Z"
       id="path12" />
    <path
       d="M 4,18 V 28 H 8 V 18 Z"
       id="path16" />
    <path
       d="m 40,18 v 10 h 4 V 18 Z"
       id="path18" />
  </g>
  <path
     style="fill:#f67400;fill-opacity:1;stroke:none;stroke-width:1px;stroke-linecap:butt;stroke-linejoin:miter;stroke-opacity:1"
     d="M 2,22 C 2,22 10,33 16.947572,36.107046 21.866016,38.306639 27.502953,39.963782 33,41 c 4.270916,0.805087 13,1 13,1 v 4 C 46,46 37.266164,45.829898 33,45 26.798887,43.793697 20.568966,41.579914 14.936854,39.263842 7,36 2,28 2,28 Z"
     id="background" />
</svg>
