<?xml version="1.0" encoding="UTF-8" standalone="no"?>
<svg
   version="1.1"
   viewBox="0 0 16 16">
  <defs
     id="defs30" />
  <path
     d="M 6.2530606,1.7946358 5.8601192,4.5464694 4.6795049,11.630884 3.1741047,13.136284 H 0.99776983 v 1.213813 H 3.6766836 L 5.8127199,12.21406 7.0597298,4.7327288 7.2736885,3.2367964 7.798814,3.3417003 8.2871913,5.0509906 9,11 h 1.27538 L 9.4881978,4.8351746 8.7627629,2.2961224 Z"
     fill="#232629"
     id="path6"/>
  <g
     fill="#7f8c8d"
     transform="matrix(0.30345304,0,0,0.30345304,0.39095478,0.39116553)">
    <path
       d="M 21.779466,5.3017576 V 44.846591 h 3.295403 V 5.3017576 Z"/>
    <path
       d="m 41.551883,31.66498 v 3.295403 h 3.295403 V 31.66498 Z"/>
    <path
       d="M 5.3024521,31.66498 V 44.846591 H 8.5978549 V 31.66498 Z"/>
    <path
       d="m 5.3024521,18.483369 v 9.886208 h 3.2954028 v -9.886208 z"/>
    <path
       d="m 41.551883,18.483369 v 9.886208 h 3.295403 v -9.886208 z"/>
    <path d="M 5.3024521,5.3017576 V 15.187966 H 8.5978549 V 5.3017576 Z" />
    <path d="m 41.551883,5.3017576 v 9.8862084 h 3.295403 V 5.3017576 Z"/>
  </g>
  <path
     d="M 11,12.010966 14,12 v 1 h -2.998244 z"
     id="path1275"
     fill="#da4453"/>
	
</svg>
