<?xml version="1.0" encoding="UTF-8" standalone="no"?>
<svg
   version="1.1"
   viewBox="0 0 48 48"
   xmlns:svg="http://www.w3.org/2000/svg">
  <g id="curve">
    <path
       d="M 24.015625,23 C 17,23 15,29 8,30 H 2 v 4 h 6 c 11,-1 9.727345,-6.956296 15.984375,-7 1.749069,0.01306 2.667898,0.750316 3.712891,2.388672 C 33,37 30.105886,35.552263 33.361328,41.742187 34.704515,44.028088 36.974946,46 40,46 h 6 V 42 H 40 C 38.525059,42 37.774275,41.356916 36.810547,39.716797 34.9115,32.949056 34.614051,32.919862 31.070312,27.236328 29.599459,24.930302 27.184413,23.023663 24.015625,23 Z"
       id="curve"
       style="fill:#232629;fill-opacity:1" />
  </g>
  <g
     id="markers"
     style="fill:#7f8c8d;fill-opacity:1">
    <path
       d="m 40,32 v 13 h 4 V 32 Z"
       id="marker1"
       style="fill:#7f8c8d;fill-opacity:1" />
    <path
       d="M 4,24 V 34 H 8 V 24 Z"
       id="marker2"
       style="fill:#7f8c8d;fill-opacity:1" />
  </g>
  <path
     style="fill:#f67400;fill-opacity:1"
     d="m 2,29 44,13 v 4 L 2,33 Z"
     id="path1389" />
  <g id="lin">
    <path
       d="m 10.451904,22.62212 q -2.1756068,0 -3.3754871,-1.397663 Q 5.889722,19.813609 5.889722,17.268808 V 3.8987123 H 2 V 2.0000005 H 8.3158537 V 17.268808 q 0,1.60863 0.6065329,2.452502 0.6065329,0.843872 1.7668564,0.843872 h 2.834883 v 2.056938 z"
       style="fill:#232629;fill-opacity:1"
       id="l" />
    <path
       d="m 22.780345,5.0722216 q -0.395565,0 -0.395565,-0.3955649 V 2.3955655 q 0,-0.395565 0.395565,-0.395565 h 1.898712 q 0.395565,0 0.395565,0.395565 v 2.2810912 q 0,0.3955649 -0.395565,0.3955649 z M 27.210672,22.62212 q -2.175607,0 -3.375487,-1.397663 Q 22.64849,19.813609 22.64849,17.268808 V 9.6475895 H 19.418043 V 7.7488778 h 5.656579 v 9.5199302 q 0,1.60863 0.606533,2.452502 0.606533,0.843872 1.766856,0.843872 h 2.834882 v 2.056938 z"
       style="fill:#232629;fill-opacity:1"
       id="i" />
    <path
       d="m 34.713221,7.7488778 h 2.188792 l 0.237339,2.2151637 q 1.331736,-2.5711722 4.338029,-2.5711722 4.522626,0 4.522626,5.9730307 v 9.150736 H 43.56069 V 13.3659 q 0,-1.99101 -0.698831,-2.927181 -0.685646,-0.9361699 -2.136051,-0.9361699 -1.7273,0 -2.663471,1.2262509 -0.922985,1.213066 -0.922985,3.441415 v 8.346421 h -2.426131 z"
       style="fill:#232629;fill-opacity:1"
       id="n" />
  </g>
</svg>
