<?xml version="1.0" encoding="UTF-8" standalone="no"?>
<svg
   viewBox="0 0 16 16"
   version="1.1"
   id="svg6"
   sodipodi:docname="prj_open.svg"
   inkscape:version="1.1 (ce6663b3b7, 2021-05-25)"
   xmlns:inkscape="http://www.inkscape.org/namespaces/inkscape"
   xmlns:sodipodi="http://sodipodi.sourceforge.net/DTD/sodipodi-0.dtd"
   xmlns="http://www.w3.org/2000/svg"
   xmlns:svg="http://www.w3.org/2000/svg">
  <sodipodi:namedview
     id="namedview8"
     pagecolor="#ffffff"
     bordercolor="#666666"
     borderopacity="1.0"
     inkscape:pageshadow="2"
     inkscape:pageopacity="0.0"
     inkscape:pagecheckerboard="0"
     showgrid="false"
     inkscape:zoom="34.3125"
     inkscape:cx="9.6612022"
     inkscape:cy="5.5519126"
     inkscape:window-width="1366"
     inkscape:window-height="744"
     inkscape:window-x="0"
     inkscape:window-y="24"
     inkscape:window-maximized="1"
     inkscape:current-layer="svg6" />
  <defs
     id="defs3051">
    <style
       type="text/css"
       id="current-color-scheme">
      .ColorScheme-Text {
        color:#232629;
      }
      </style>
  </defs>
  <path
     style="fill:currentColor;fill-opacity:1;stroke:none"
     d="M 2 2 L 2 3 L 2 6 L 2 7 L 2 13 L 2 14 L 14 14 L 14 13 L 14 6 L 14 5 L 14 4 L 9.0078125 4 L 7.0078125 2 L 7 2.0078125 L 7 2 L 3 2 L 2 2 z M 3 3 L 6.5917969 3 L 7.59375 4 L 7 4 L 7 4.0078125 L 6.9921875 4 L 4.9921875 6 L 3 6 L 3 3 z M 3 7 L 13 7 L 13 13 L 3 13 L 3 7 z "
     class="ColorScheme-Text"
     id="path4" />
  <g
     id="g45437"
     transform="matrix(0.94334261,0,0,0.94334261,0.91317537,-0.47167131)">
    <g
       id="g25122"
       transform="translate(2.9253799,0.497937)">
      <ellipse
         style="fill:none;fill-opacity:1;stroke:#0072bb;stroke-width:0.795046;stroke-linecap:round;stroke-linejoin:round;stroke-miterlimit:4;stroke-dasharray:none;stroke-opacity:1;paint-order:stroke fill markers"
         id="path950"
         cx="5.0557055"
         cy="7.9976244"
         rx="4.3971257"
         ry="1.5796092"
         transform="matrix(0.82299154,-0.56805363,0.56925795,0.82215898,0,0)" />
      <ellipse
         style="fill:none;fill-opacity:1;stroke:#0072bb;stroke-width:0.795046;stroke-linecap:round;stroke-linejoin:round;stroke-miterlimit:4;stroke-dasharray:none;stroke-opacity:1;paint-order:stroke fill markers"
         id="path950-6"
         cx="-9.2720976"
         cy="-1.9018729"
         rx="4.3971257"
         ry="1.5796092"
         transform="matrix(-0.82299154,-0.56805363,-0.56925795,0.82215898,0,0)" />
    </g>
    <circle
       style="fill:#0072bb;fill-opacity:1;stroke:none;stroke-width:1.47132;stroke-linecap:round;stroke-linejoin:round;stroke-miterlimit:4;stroke-dasharray:none;stroke-opacity:1;paint-order:stroke fill markers"
       id="path25226"
       cx="9.5"
       cy="1.5"
       r="1" />
    <circle
       style="fill:#0072bb;fill-opacity:1;stroke:none;stroke-width:1.47132;stroke-linecap:round;stroke-linejoin:round;stroke-miterlimit:4;stroke-dasharray:none;stroke-opacity:1;paint-order:stroke fill markers"
       id="path25226-7"
       cx="9.5"
       cy="7"
       r="1" />
  </g>
</svg>
