<?xml version="1.0" encoding="UTF-8" standalone="no"?>
<svg
   viewBox="0 0 16 16"
   version="1.1"
   id="svg7"
   sodipodi:docname="hussarix_16_icon.svg"
   inkscape:version="1.1 (ce6663b3b7, 2021-05-25)"
   xmlns:inkscape="http://www.inkscape.org/namespaces/inkscape"
   xmlns:sodipodi="http://sodipodi.sourceforge.net/DTD/sodipodi-0.dtd"
   xmlns="http://www.w3.org/2000/svg"
   xmlns:svg="http://www.w3.org/2000/svg">
  <defs
     id="defs11" />
  <sodipodi:namedview
     id="namedview9"
     pagecolor="#ffffff"
     bordercolor="#666666"
     borderopacity="1.0"
     inkscape:pageshadow="2"
     inkscape:pageopacity="0.0"
     inkscape:pagecheckerboard="0"
     showgrid="true"
     inkscape:zoom="12.315588"
     inkscape:cx="-3.1261195"
     inkscape:cy="8.9723691"
     inkscape:window-width="1366"
     inkscape:window-height="744"
     inkscape:window-x="1680"
     inkscape:window-y="24"
     inkscape:window-maximized="1"
     inkscape:current-layer="svg7">
    <inkscape:grid
       type="xygrid"
       id="grid861" />
  </sodipodi:namedview>
  <path
     id="horse"
     style="fill:#1cdc9a;stroke:none;stroke-width:1.33333px;stroke-linecap:butt;stroke-linejoin:miter;stroke-opacity:1;fill-opacity:1"
     d="M 1 5.484375 L 1 4 L 0 4.2050781 L 0 6.0058594 L 1 5.484375 z " />
  <path
     id="path949"
     style="fill:#1cdc9a;stroke:none;stroke-width:1.33333px;stroke-linecap:butt;stroke-linejoin:miter;stroke-opacity:1;fill-opacity:1"
     d="M 1 9.4863281 L 1 7.6074219 L 0 8.3769531 L 0 10.746094 L 1 9.4863281 z " />
  <path
     id="path947"
     style="fill:#1cdc9a;stroke:none;stroke-width:1.33333px;stroke-linecap:butt;stroke-linejoin:miter;stroke-opacity:1;fill-opacity:1"
     d="M 8,15 H 7 L 6.2480469,16 H 7.578125 Z"
     sodipodi:nodetypes="ccccc" />
  <path
     id="path954"
     style="fill:#1cdc9a;stroke:none;stroke-width:1.33333px;stroke-linecap:butt;stroke-linejoin:miter;stroke-opacity:1;fill-opacity:1"
     d="M 10,15 H 9 L 8.5605469,16 H 10 Z"
     sodipodi:nodetypes="ccccc" />
  <path
     id="path952"
     style="fill:#7f8c8d;stroke:none;stroke-width:1.33333px;stroke-linecap:butt;stroke-linejoin:miter;stroke-opacity:1"
     d="M 7.390625,0 7.1171875,0.92773438 5.9003906,1.0703125 4.1425781,0.85742188 3.5859375,1.6035156 3.8574219,2.5 5.9121094,3.5410156 5.8261719,4.578125 4.9121094,5.6796875 2.3105469,3.7324219 1,4 V 5.484375 L 2.3105469,4.8027344 4.3144531,6.3945312 3.7324219,6.765625 1.8847656,6.9277344 1,7.6074219 V 9.4863281 L 2.0488281,8.1640625 4.0859375,8.28125 5.2695312,10.554688 7.8066406,11.978516 7.6289062,13.625 7,15 H 8 L 8.6601562,13.949219 9.25,13.705078 9,15 h 1 l 0.150391,-1.474609 1.259765,-1.167969 0.628906,0.503906 -0.15039,1.828125 1.445312,0.140625 -0.46289,-1.972656 -1.041016,-0.898438 0.306641,-0.830078 L 11.220703,9.703125 9.9375,8.4863281 8.28125,7.875 7,5.9726562 7.96875,5.2929688 8.6601562,3.1445312 8.5546875,1.2207031 Z"
     sodipodi:nodetypes="ccccccccccccccccccccccccccccccccccccccccccccc" />
  <path
     style="fill:#da4453;fill-opacity:1;stroke:none;stroke-width:1.33333px;stroke-linecap:butt;stroke-linejoin:miter;stroke-opacity:1"
     d="M 6.237654,1.5830227 7.3188245,1.4885151 7.4811801,2.171008 6.4292259,2.2120027 Z"
     id="horse_eye" />
  <path
     style="fill:#bdc3c7;fill-opacity:1;stroke:none;stroke-width:1.33333px;stroke-linecap:butt;stroke-linejoin:miter;stroke-opacity:1"
     d="M 5.8307839,8.0423793 4.4339594,10.292831 H 3.3475404 L 5.3651757,11.612061 6.6843988,8.6631936 8.280796,7.8746115 9.1676423,8.0423793 11.262879,5.8695295 12.116494,4.6279009 12.582102,4.0070867 13.202913,4.084688 13.280513,3.2310684 12.582101,2.2998471 11.806086,1.9118381 11.728486,2.5326524 11.495683,2.7654577 12.038891,3.386272 11.806087,3.6190773 11.26288,2.9982635 10.486866,3.6190777 10.708291,3.9795863 11.4936,4.5451883 10.821236,4.1866424 9.6173888,4.7649248 7.812398,4.1210079 7.1843795,4.7487284 8.9657907,6.0029612 10.805337,5.4146929 9.7477084,5.8726416 8.0812233,6.4903391 Z"
     id="rider" />
  <path
     style="fill:#1cdc9a;fill-opacity:1;stroke:none;stroke-width:1.33331px;stroke-linecap:butt;stroke-linejoin:miter;stroke-opacity:1"
     d="M 14.199718,0 15.492209,0.91480827 16,2.5885569 15.130814,5.2602592 12.395074,6.6901709 10.905008,7.6040516 9.9380648,8.4868861 9.1676423,8.0421711 11.262879,5.8695295 13.754444,4.2926405 14.286173,2.6036571 13.910835,1.4151128 12.315652,0 Z"
     id="wings" />
  <path
     style="color:#000000;fill:#da4453;-inkscape-stroke:none;fill-opacity:1"
     d="M 1,0 H 0 v 1 l 15,9 1,0.6 V 9 Z"
     id="probe"
     sodipodi:nodetypes="ccccccc" />
</svg>
