<svg version="1.1" viewBox="0 0 24 24" xmlns="http://www.w3.org/2000/svg">
    <path d="M0 0h24v24H0V0z" fill="none"/>
    <path d="m6.1833 11.392v1.8047a4.098 4.098 0 0 0-1.3444 0.55092l-1.2311-1.2311-1.2333 1.2333 1.2333 1.2333a4.098 4.098 0 0 0-0.55545 1.3422h-1.8024v1.7412h1.8047a4.098 4.098 0 0 0 0.55092 1.3444l-1.2311 1.2311 1.2333 1.2333 1.2333-1.2333a4.098 4.098 0 0 0 1.3422 0.55545v1.8024h1.7412v-1.8047a4.098 4.098 0 0 0 1.3444-0.55092l1.2311 1.2311 1.2333-1.2333-1.2333-1.2333a4.098 4.098 0 0 0 0.55545-1.3422h1.8024v-1.7412h-1.8047a4.098 4.098 0 0 0-0.55092-1.3444l1.2311-1.2311-1.2333-1.2333-1.2333 1.2333a4.098 4.098 0 0 0-1.3422-0.55545v-1.8024zm0.87059 4.0627a1.7412 1.7412 0 0 1 1.7412 1.7412 1.7412 1.7412 0 0 1-1.7412 1.7412 1.7412 1.7412 0 0 1-1.7412-1.7412 1.7412 1.7412 0 0 1 1.7412-1.7412z" fill="#fff" style="paint-order:normal"/>
    <path d="m17.589 1.5052c-3.0893 1.3491-4.9408 3.9244-5.3739 7.3715-0.3547 2.8231 1.4096 4.9983 5.7846 5.1233s6.8148-2.4861 4.625-5.375c-1.7029-2.2466 0.83211-7.6982 0.83211-7.6982-2.7542 2.2275-4.6318 5.7409-3.5964 9.4432-1.7154-0.46773-1.1077-4.929-1.1077-4.929 0.39783-1.2022 0.74654-2.3749 2.2897-4.2642-2.4223 0.84027-3.2606 2.0601-3.6981 3.7339-0.75 2.25-0.71967 4.0741-0.71967 4.0741s-3.5714-0.9745 0.96428-7.4797z" fill="#ffd42a"/>
</svg>
