<svg version="1.1" viewBox="0 0 24 24" xmlns="http://www.w3.org/2000/svg">
    <path d="M0 0h24v24H0V0z" fill="none"/>
    <path d="m14.717 0.86364c-4.0909 0-7.5845 2.5445-9 6.1364 1.4155 3.5918 4.9091 6.1364 9 6.1364s7.5845-2.5445 9-6.1364c-1.4155-3.5918-4.9091-6.1364-9-6.1364zm0 1.6364c3.1009 0 5.8666 1.7427 7.2166 4.5-1.35 2.7573-4.1157 4.5-7.2166 4.5s-5.8666-1.7427-7.2166-4.5c1.35-2.7573 4.1157-4.5 7.2166-4.5z" fill="#3daee9"/>
    <path d="m6.1833 11.392v1.8047a4.098 4.098 0 0 0-1.3444 0.55092l-1.2311-1.2311-1.2333 1.2333 1.2333 1.2333a4.098 4.098 0 0 0-0.55545 1.3422h-1.8024v1.7412h1.8047a4.098 4.098 0 0 0 0.55092 1.3444l-1.2311 1.2311 1.2333 1.2333 1.2333-1.2333a4.098 4.098 0 0 0 1.3422 0.55545v1.8024h1.7412v-1.8047a4.098 4.098 0 0 0 1.3444-0.55092l1.2311 1.2311 1.2333-1.2333-1.2333-1.2333a4.098 4.098 0 0 0 0.55545-1.3422h1.8024v-1.7412h-1.8047a4.098 4.098 0 0 0-0.55092-1.3444l1.2311-1.2311-1.2333-1.2333-1.2333 1.2333a4.098 4.098 0 0 0-1.3422-0.55545v-1.8024zm0.87059 4.0627a1.7412 1.7412 0 0 1 1.7412 1.7412 1.7412 1.7412 0 0 1-1.7412 1.7412 1.7412 1.7412 0 0 1-1.7412-1.7412 1.7412 1.7412 0 0 1 1.7412-1.7412z" fill="#fff" style="paint-order:normal"/>
    <path d="m14.5 3c-2.1973 0-4 1.8027-4 4s1.8027 4 4 4 4-1.8027 4-4-1.8027-4-4-4zm0 2c1.1164 0 2 0.88359 2 2s-0.88359 2-2 2-2-0.88359-2-2 0.88359-2 2-2z" color="#000000" color-rendering="auto" dominant-baseline="auto" fill="#3daee9" image-rendering="auto" shape-rendering="auto" solid-color="#000000" style="font-feature-settings:normal;font-variant-alternates:normal;font-variant-caps:normal;font-variant-ligatures:normal;font-variant-numeric:normal;font-variant-position:normal;isolation:auto;mix-blend-mode:normal;paint-order:normal;shape-padding:0;text-decoration-color:#000000;text-decoration-line:none;text-decoration-style:solid;text-indent:0;text-orientation:mixed;text-transform:none;white-space:normal"/>
</svg>
