<svg version="1.1" viewBox="0 0 48 48" xmlns="http://www.w3.org/2000/svg">
    <path d="m19.318 4.625-1.2949 9.0684-3.8906 23.346-4.9609 4.9609h-7.1719v4h8.8281l7.0391-7.0391 4.1094-24.654 0.70508-4.9297 1.7305 0.3457 1.6094 5.6328 2.0645 26.828 6.3594 3.8164h11.555v-4h-10.445l-3.6406-2.1836-1.9355-25.172-2.3906-8.3672z" color="#000000" color-rendering="auto" dominant-baseline="auto" fill="#fff" image-rendering="auto" shape-rendering="auto" solid-color="#000000" style="font-feature-settings:normal;font-variant-alternates:normal;font-variant-caps:normal;font-variant-ligatures:normal;font-variant-numeric:normal;font-variant-position:normal;isolation:auto;mix-blend-mode:normal;shape-padding:0;text-decoration-color:#000000;text-decoration-line:none;text-decoration-style:solid;text-indent:0;text-orientation:mixed;text-transform:none;white-space:normal"/>
    <g fill="#ff2a2a">
        <path d="m40 32v14h4v-14z"/>
        <path d="m4 32v14h4v-14z"/>
        <path d="m4 18v10h4v-10z"/>
        <path d="m40 18v10h4v-10z"/>
        <path d="m4 2v12h4v-12z"/>
        <path d="m40 2v12h4v-12z"/>
        <rect x="14" y="42" width="8" height="4" style="paint-order:normal"/>
        <rect x="26" y="42" width="8" height="4" style="paint-order:normal"/>
    </g>
</svg>
