<svg version="1.1" viewBox="0 0 48 48" xmlns="http://www.w3.org/2000/svg">
    <g>
        <path d="m8 6v2h5v-2z"/>
        <path d="m35 3v3h-3v2h3v3h2v-3h3v-2h-3v-3z"/>
        <path d="m19.318 4.625-1.2949 9.0684-3.8906 23.346-4.9609 4.9609h-7.1719v4h8.8281l7.0391-7.0391 4.1094-24.654 0.70508-4.9297 1.7305 0.3457 1.6094 5.6328 2.0645 26.828 6.3594 3.8164h11.555v-4h-10.445l-3.6406-2.1836-1.9355-25.172-2.3906-8.3672z" color="#000000" color-rendering="auto" dominant-baseline="auto" image-rendering="auto" shape-rendering="auto" solid-color="#000000" style="font-feature-settings:normal;font-variant-alternates:normal;font-variant-caps:normal;font-variant-ligatures:normal;font-variant-numeric:normal;font-variant-position:normal;isolation:auto;mix-blend-mode:normal;shape-padding:0;text-decoration-color:#000000;text-decoration-line:none;text-decoration-style:solid;text-indent:0;text-orientation:mixed;text-transform:none;white-space:normal"/>
    </g>
    <g fill="#ff2a2a">
        <path d="m22 2v44h2v-44z"/>
        <path d="m42 32v13h2v-13z"/>
        <path d="m4 32v13h2v-13z"/>
        <path d="m4 18v10h2v-10z"/>
        <path d="m42 18v10h2v-10z"/>
        <path d="m4 2v12h2v-12z"/>
        <path d="m42 2v12h2v-12z"/>
    </g>
</svg>
