<svg version="1.1" viewBox="0 0 48 48" xmlns="http://www.w3.org/2000/svg">
    <g>
        <path d="m 24.015625,21 c -3.201133,-0.0239 -5.611202,1.92991 -6.929688,4.265625 -1.318485,2.335715 -1.962646,5.08558 -2.646484,7.701172 -0.683837,2.615592 -1.404466,5.088525 -2.40039,6.68164 C 11.043138,41.241553 10.111371,42 8,42 H 2 v 4 h 6 c 3.388623,0 5.956821,-1.876374 7.429688,-4.232422 1.472866,-2.356048 2.189663,-5.145325 2.880859,-7.789062 0.691196,-2.643737 1.359529,-5.151314 2.259765,-6.746094 0.900237,-1.59478 1.61534,-2.245854 3.414063,-2.232422 1.749069,0.01306 2.667898,0.750316 3.712891,2.388672 1.044993,1.638356 1.887788,4.129097 2.707031,6.738281 0.819243,2.609185 1.613844,5.329334 2.957031,7.615234 C 34.704515,44.028088 36.974946,46 40,46 h 6 v -4 h -6 c -1.474941,0 -2.225725,-0.643084 -3.189453,-2.283203 -0.963729,-1.640119 -1.763554,-4.157434 -2.589844,-6.789063 -0.82629,-2.631629 -1.679537,-5.38538 -3.150391,-7.691406 C 29.599459,22.930302 27.184413,21.023663 24.015625,21 Z" fill="#eff0f1"/>
    </g>
    <g fill="#f67400">
        <path d="m22 2v44h4v-44z"/>
    </g>
</svg>
