<?xml version="1.0" encoding="UTF-8" standalone="no"?>
<svg viewBox="0 0 16 16" version="1.1">
  <path d="m2 2L2 14L9 14L9 13L3 13L3 4L13 4L13 9L14 9L14 2L2 2z"
        fill="#eff0f1"
	id="window"/>
  <path d="M 11 9 L 11 11 L 9 11 L9 12L11 12L11 14L12 14L12 12L14 12L14 11L12 11L12 9L11 9z "
        fill="#eff0f1"
	id="plus"/>
  <path d="M 11.707031,4.5605469 9.0371094,8.5664063 6.2753906,5.4433594 3.3925781,11.800781 4.3027344,12.212891 6.5488281,7.2636719 9.1484375,10.201172 12.539063,5.1152344 Z"
	fill="#27ae60"
	id="curve" />
</svg>
