<?xml version="1.0" encoding="UTF-8" standalone="no"?>
<svg
   viewBox="0 0 16 16"
   version="1.1"
   id="svg11">
  <defs
     id="defs11">
    <clipPath
       clipPathUnits="userSpaceOnUse"
       id="clipPath2152">
      <rect
         style="fill:#ff0000;stroke:none;stroke-width:3;stroke-linecap:round;stroke-linejoin:round;stroke-opacity:1;paint-order:stroke fill markers"
         id="rect2154"
         width="8"
         height="8"
         x="22"
         y="8"
         ry="1" />
    </clipPath>
  </defs>
  <g
     id="g2138"
     clip-path="url(#clipPath2152)"
     transform="translate(-14,-8)">
    <rect
       style="fill:#ff0000;stroke:none;stroke-width:3;stroke-linecap:round;stroke-linejoin:round;stroke-opacity:1;paint-order:stroke fill markers"
       id="rect1290"
       width="8"
       height="8"
       x="22"
       y="8"
       ry="1" />
    <circle
       style="fill:#ffffff;stroke:none;stroke-width:1.5;stroke-linecap:round;stroke-linejoin:round;stroke-opacity:1;paint-order:stroke fill markers"
       id="path1438"
       cx="23.922499"
       cy="12.001925"
       r="1" />
    <path
       id="path1659"
       style="color:#000000;fill:#ffffff;stroke-linecap:round;stroke-linejoin:round;-inkscape-stroke:none;paint-order:stroke fill markers"
       d="m 12.484375,16 h 0.537109 C 12.3533,14.335908 12.092487,12.484427 12.34375,10.587891 12.463953,9.6805978 12.695751,8.8144465 13.021484,8 H 12.484375 C 12.181306,8.7978724 11.96429,9.6411286 11.847656,10.521484 11.594149,12.434958 11.83838,14.30633 12.484375,16 Z"
       transform="translate(14)" />
    <path
       id="path1829"
       style="color:#000000;fill:#ffffff;stroke-linecap:round;stroke-linejoin:round;-inkscape-stroke:none;paint-order:stroke fill markers"
       d="m 15.207031,15.982422 c 0.04267,-0.0069 0.08486,-0.01448 0.123047,-0.02539 0.04785,-0.01367 0.09155,-0.02979 0.132813,-0.04883 0.04126,-0.01904 0.08008,-0.04101 0.115234,-0.06445 0.03516,-0.02344 0.06812,-0.04932 0.09766,-0.07617 0.02954,-0.02686 0.05566,-0.05469 0.08008,-0.08398 0.02441,-0.0293 0.04663,-0.05908 0.06641,-0.08984 0.01977,-0.03076 0.03711,-0.0625 0.05273,-0.09375 0.01563,-0.03125 0.02905,-0.06299 0.04102,-0.09375 0.01196,-0.03076 0.02246,-0.06055 0.03125,-0.08984 8.61e-4,-0.0029 0.0011,-0.005 0.002,-0.0078 -1.042785,-0.961334 -1.609574,-2.395185 -1.410157,-3.900391 0.143689,-1.08456 0.661587,-2.0293498 1.410157,-2.7187499 -6.41e-4,-0.00218 -0.0013,-0.00367 -0.002,-0.00586 -0.0088,-0.029297 -0.01929,-0.059082 -0.03125,-0.089844 C 15.904053,8.5629883 15.890625,8.53125 15.875,8.5 15.85937,8.46875 15.84204,8.437012 15.82227,8.40625 15.80249,8.375488 15.78028,8.345703 15.75586,8.316406 15.73145,8.287109 15.70532,8.259277 15.67578,8.232422 15.64624,8.205567 15.61328,8.179688 15.57812,8.15625 15.54296,8.132813 15.50414,8.11084 15.462886,8.091797 15.421626,8.072754 15.377926,8.056641 15.330073,8.042969 15.292463,8.032224 15.250923,8.024467 15.208979,8.017578 14.32745,8.855652 13.717704,9.9878892 13.54687,11.277344 c -0.238573,1.800747 0.428111,3.528826 1.660156,4.705078 z"
       transform="translate(14)" />
  </g>
  <path
     id="path1142"
     style="fill:#eff0f1;fill-opacity:1;stroke:none;stroke-width:1px;stroke-linecap:butt;stroke-linejoin:miter;stroke-opacity:1"
     d="m 1,8 v 1 h 2 v 2 h 4 v 2 H 6 v 1 H 4 v 1 h 8 V 14 H 10 V 13 H 9 v -2 h 4 V 9 h 2 V 8 H 9 v 1 h 2 v 1 H 5 V 9 H 7 V 8 Z"
     sodipodi:nodetypes="ccccccccccccccccccccccccccccc" />
  <path
     style="fill:#eff0f1;stroke:none;stroke-width:1px;stroke-linecap:butt;stroke-linejoin:miter;stroke-opacity:1;fill-opacity:1"
     d="M 2,7 H 6 V 3 H 5 V 2 H 6 V 1 H 2 V 2 H 3 V 3 H 2 Z"
     id="path1661" />
</svg>
