<?xml version="1.0" encoding="UTF-8" standalone="no"?>
<svg
   version="1.1"
   viewBox="0 0 48 48"
   xmlns:svg="http://www.w3.org/2000/svg">
  <g id="g4">
    <path
       d="M 24.015625,17 C 20.814492,16.9761 18.404423,18.92991 17.085937,21.265625 14.3546,23.951877 10.734744,27.961589 8,28 H 2 v 4 h 6 c 6.113675,-1.092776 12.246052,-8.195441 12.570312,-8.767578 0.900237,-1.59478 1.61534,-2.245854 3.414063,-2.232422 1.749069,0.01306 2.667898,0.750316 3.712891,2.388672 C 30,27 32,46 40,46 h 6 V 42 H 40 C 36,41 37,35 31.070312,21.236328 29.599459,18.930302 27.184413,17.023663 24.015625,17 Z"
       id="path2"
       style="fill:#eff0f1;fill-opacity:1" />
  </g>
  <g
     id="g14"
     transform="translate(-2)"
     style="fill:#bdc3c7;fill-opacity:1">
    <path
       d="m 42,32 v 13 h 4 V 32 Z"
       id="path8"
       style="fill:#bdc3c7;fill-opacity:1" />
    <path
       d="m 42,18 v 10 h 4 V 18 Z"
       id="path10"
       style="fill:#bdc3c7;fill-opacity:1" />
    <path
       d="m 42,2 v 12 h 4 V 2 Z"
       id="path12"
       style="fill:#bdc3c7;fill-opacity:1" />
  </g>
  <path
     style="fill:#f67400;fill-opacity:1"
     d="m 46,40 v 6 L 2,31 v -4 l 44,15"
     id="path1628"/>
  <g
     aria-label="⌳"
     id="text4863"
     transform="translate(2)">
    <path
       d="M 2.0000003,14.000002 V 1.9999993 L 26.574473,13.425533 v 0.574469 z M 4.2659582,11.797874 H 18.276599 L 4.2659582,5.1595744 Z"
       id="path848"
       style="fill:#eff0f1;fill-opacity:1" />
  </g>
</svg>
