<?xml version="1.0" encoding="UTF-8" standalone="no"?>
<svg
   version="1.1"
   viewBox="0 0 48 48"
   id="svg22"
   xmlns="http://www.w3.org/2000/svg"
   xmlns:svg="http://www.w3.org/2000/svg">
  <defs
     id="defs26" />
  <path
     d="M 20.304701,17 H 18 V 7.3515025 H 15.039044 V 5.335865 h 8.226613 v 2.0156375 h -2.960956 z"
     id="letterT"
     style="fill:#EFF0F1" />
  <path
     d="m 29.242189,7.445253 -1.085945,4.773467 h 2.179702 z M 27.83593,5.335865 h 2.82033 L 33.804717,17 H 31.500015 L 30.781261,14.117169 H 27.695304 L 26.992175,17 h -2.304702 z"
     id="letterA"
     style="fill:#eff0f1" />
  <path
     d="m 37.985125,7.2733773 v 3.4218957 h 0.945318 q 1.13282,0 1.585948,-0.382815 0.46094,-0.382815 0.46094,-1.3281326 0,-0.9453184 -0.46094,-1.3281332 -0.453128,-0.3828149 -1.585948,-0.3828149 z m -2.304702,-1.937512 h 3.164082 q 2.414078,0 3.468772,0.8593803 1.062507,0.8593803 1.062507,2.7890798 0,1.9296996 -1.062507,2.7890796 -1.054694,0.85938 -3.468772,0.85938 h -0.85938 V 17 h -2.304702 z"
     id="letterP"
     style="fill:#EFF0F1" />
  <path
     d="m 18.304702,24.273377 v 3.421896 h 0.945318 q 1.13282,0 1.585948,-0.382814 0.46094,-0.382815 0.46094,-1.328134 0,-0.945318 -0.46094,-1.328133 Q 20.38284,24.273377 19.25002,24.273377 Z M 16,22.335865 h 3.164082 q 2.414078,0 3.468772,0.85938 1.062506,0.859381 1.062506,2.78908 0,1.9297 -1.062506,2.78908 -1.054694,0.85938 -3.468772,0.85938 h -0.85938 V 34 H 16 Z"
     id="letterP2"
     style="fill:#EFF0F1" />
  <path
     d="m 33.280103,34 h -7.26567 V 22.335865 h 7.26567 v 2.031263 h -4.960968 v 2.51564 h 4.492215 v 2.031263 h -4.492215 v 3.054706 h 4.960968 z"
     id="letterE"
     style="fill:#EFF0F1" />
  <path
     d="m 40.289826,34 h -2.304701 v -9.648497 h -2.960956 v -2.015638 h 8.226613 v 2.015638 h -2.960956 z"
     id="letterT2"
     style="fill:#EFF0F1" />
  <path
     id="rect18021"
     style="fill:#EFF0F1"
     d="m 18,38 h 4 v 4 h -4 z" />
  <path
     id="rect18021-3"
     style="fill:#EFF0F1"
     d="m 26,38 h 4 v 4 h -4 z" />
  <path
     id="rect18021-6"
     style="fill:#EFF0F1"
     d="m 34,38 h 4 v 4 h -4 z" />
  <path
     id="path19120"
     style="fill:#27ae60"
     d="m 14,28 a 5,5 0 0 1 -5,5 5,5 0 0 1 -5,-5 5,5 0 0 1 5,-5 5,5 0 0 1 5,5 z" />
</svg>
