<?xml version="1.0" encoding="UTF-8" standalone="no"?>
<svg
   viewBox="0 0 16 16"
   version="1.1"
   id="svg11">
   <defs
     id="defs11">
    <clipPath
       clipPathUnits="userSpaceOnUse"
       id="clipPath2152">
      <rect
         style="fill:#ff0000;stroke:none;stroke-width:3;stroke-linecap:round;stroke-linejoin:round;stroke-opacity:1;paint-order:stroke fill markers"
         id="rect2154"
         width="8"
         height="8"
         x="22"
         y="8"
         ry="1" />
    </clipPath>
  </defs>
  <g
     id="g2138"
     clip-path="url(#clipPath2152)"
     transform="translate(-14,-8)">
    <rect
       style="fill:#ff0000;stroke:none;stroke-width:3;stroke-linecap:round;stroke-linejoin:round;stroke-opacity:1;paint-order:stroke fill markers"
       id="rect1290"
       width="8"
       height="8"
       x="22"
       y="8"
       ry="1" />
    <circle
       style="fill:#ffffff;stroke:none;stroke-width:1.5;stroke-linecap:round;stroke-linejoin:round;stroke-opacity:1;paint-order:stroke fill markers"
       id="path1438"
       cx="23.922499"
       cy="12.001925"
       r="1" />
    <path
       id="path1659"
       style="color:#000000;fill:#ffffff;stroke-linecap:round;stroke-linejoin:round;-inkscape-stroke:none;paint-order:stroke fill markers"
       d="m 12.484375,16 h 0.537109 C 12.3533,14.335908 12.092487,12.484427 12.34375,10.587891 12.463953,9.6805978 12.695751,8.8144465 13.021484,8 H 12.484375 C 12.181306,8.7978724 11.96429,9.6411286 11.847656,10.521484 11.594149,12.434958 11.83838,14.30633 12.484375,16 Z"
       transform="translate(14)" />
    <path
       id="path1829"
       style="color:#000000;fill:#ffffff;stroke-linecap:round;stroke-linejoin:round;-inkscape-stroke:none;paint-order:stroke fill markers"
       d="m 15.207031,15.982422 c 0.04267,-0.0069 0.08486,-0.01448 0.123047,-0.02539 0.04785,-0.01367 0.09155,-0.02979 0.132813,-0.04883 0.04126,-0.01904 0.08008,-0.04101 0.115234,-0.06445 0.03516,-0.02344 0.06812,-0.04932 0.09766,-0.07617 0.02954,-0.02686 0.05566,-0.05469 0.08008,-0.08398 0.02441,-0.0293 0.04663,-0.05908 0.06641,-0.08984 0.01977,-0.03076 0.03711,-0.0625 0.05273,-0.09375 0.01563,-0.03125 0.02905,-0.06299 0.04102,-0.09375 0.01196,-0.03076 0.02246,-0.06055 0.03125,-0.08984 8.61e-4,-0.0029 0.0011,-0.005 0.002,-0.0078 -1.042785,-0.961334 -1.609574,-2.395185 -1.410157,-3.900391 0.143689,-1.08456 0.661587,-2.0293498 1.410157,-2.7187499 -6.41e-4,-0.00218 -0.0013,-0.00367 -0.002,-0.00586 -0.0088,-0.029297 -0.01929,-0.059082 -0.03125,-0.089844 C 15.904053,8.5629883 15.890625,8.53125 15.875,8.5 c -0.01563,-0.03125 -0.03296,-0.062988 -0.05273,-0.09375 -0.01978,-0.030762 -0.04199,-0.060547 -0.06641,-0.089844 -0.02441,-0.029297 -0.05054,-0.057129 -0.08008,-0.083984 -0.02954,-0.026855 -0.0625,-0.052734 -0.09766,-0.076172 -0.03516,-0.023437 -0.07398,-0.04541 -0.115234,-0.064453 -0.04126,-0.019043 -0.08496,-0.035156 -0.132813,-0.048828 -0.03761,-0.010745 -0.07915,-0.018502 -0.121094,-0.025391 -0.881529,0.838074 -1.491275,1.9703112 -1.662109,3.2597659 -0.238573,1.800747 0.428111,3.528826 1.660156,4.705078 z"
       transform="translate(14)" />
  </g>
  <path
     style="fill:none;stroke:#eff0f1;stroke-width:1px;stroke-linecap:butt;stroke-linejoin:miter;stroke-opacity:1"
     d="M 2,14 5,2 9.0496311,14.131992 11.931152,9.0786495 15.095037,13.925017"
     id="path1011"
     sodipodi:nodetypes="ccccc" />
</svg>
